<?xml version="1.0" encoding="UTF-8"?>
<!DOCTYPE svg PUBLIC "-//W3C//DTD SVG 1.1//EN" "http://www.w3.org/Graphics/SVG/1.1/DTD/svg11.dtd">
<!-- Creator: CorelDRAW -->
<svg xmlns="http://www.w3.org/2000/svg" xml:space="preserve" width="4.352cm" height="1.44742cm" shape-rendering="geometricPrecision" text-rendering="geometricPrecision" image-rendering="optimizeQuality" fill-rule="evenodd" clip-rule="evenodd"
viewBox="0 0 4.352 1.44742"
 xmlns:xlink="http://www.w3.org/1999/xlink">
 <defs>
    <linearGradient id="id0" gradientUnits="userSpaceOnUse" x1="0.83622" y1="0.83854" x2="1.0171" y2="0.39246">
     <stop offset="0" stop-color="#1F478D"/>
     <stop offset="1" stop-color="white"/>
    </linearGradient>
    <linearGradient id="id1" gradientUnits="userSpaceOnUse" x1="1.12038" y1="0.20518" x2="0.73788" y2="1.00504">
     <stop offset="0" stop-color="#FFF500"/>
     <stop offset="1" stop-color="#E77817"/>
    </linearGradient>
    <linearGradient id="id2" gradientUnits="userSpaceOnUse" x1="0.84283" y1="0.82468" x2="1.01543" y2="0.39903">
     <stop offset="0" stop-color="#1F478D"/>
     <stop offset="1" stop-color="white"/>
    </linearGradient>
    <radialGradient id="id3" gradientUnits="userSpaceOnUse" cx="0.98771" cy="0.61119" r="0.46024" fx="0.98771" fy="0.61119">
     <stop offset="0" stop-color="white"/>
     <stop offset="1" stop-color="#1F478D"/>
    </radialGradient>
 </defs>
 <g id="Layer_x0020_1">
  <metadata id="CorelCorpID_0Corel-Layer"/>
  <g id="_106432904">
   <path id="_106432568" fill="url(#id0)" d="M1.00658 1.12082c-0.27909,0 -0.50533,-0.22624 -0.50533,-0.50532 0,-0.27908 0.22624,-0.50532 0.50533,-0.50532 0.1914,0 0.28217,0.08424 0.38615,0.17942 -0.10845,-0.15169 -0.22036,-0.22564 -0.43815,-0.22564 -0.30461,0 -0.55155,0.24693 -0.55155,0.55154 0,0.30461 0.24694,0.55154 0.55155,0.55154 0.2178,0 0.40606,-0.12626 0.4957,-0.30958 -0.08575,0.15691 -0.25228,0.26336 -0.4437,0.26336z"/>
   <path id="_106432544" fill="url(#id1)" d="M0.99356 1.01252c-0.22501,0 -0.40742,-0.18241 -0.40742,-0.4074 0,-0.22502 0.18241,-0.40741 0.40742,-0.40741 0.15433,0 0.28859,0.08579 0.35773,0.21229 -0.07228,-0.14776 -0.22406,-0.24957 -0.39965,-0.24957 -0.24559,0 -0.44468,0.19909 -0.44468,0.44469 0,0.24558 0.19909,0.44467 0.44468,0.44467 0.1756,0 0.32738,-0.1018 0.39966,-0.24959 -0.06913,0.1265 -0.2034,0.21232 -0.35774,0.21232z"/>
   <path id="_106432760" fill="url(#id2)" d="M0.98028 0.94146c-0.17862,0 -0.32342,-0.14758 -0.32342,-0.3296 0,-0.18203 0.1448,-0.3296 0.32342,-0.3296 0.1225,0 0.22909,0.06942 0.28396,0.17176 -0.05737,-0.11955 -0.17786,-0.2019 -0.31724,-0.2019 -0.19496,0 -0.353,0.16106 -0.353,0.35974 0,0.19869 0.15804,0.35973 0.353,0.35973 0.13939,0 0.25988,-0.08235 0.31726,-0.20189 -0.05488,0.10232 -0.16147,0.17176 -0.28398,0.17176z"/>
   <path id="_106432664" fill="url(#id3)" d="M1.21742 0.6112c0,0.11979 -0.10285,0.21691 -0.22971,0.21691 -0.12687,0 -0.22971,-0.09712 -0.22971,-0.21691 0,-0.11981 0.10284,-0.21693 0.22971,-0.21693 0.12686,0 0.22971,0.09712 0.22971,0.21693z"/>
   <path id="_106433144" fill="#1F478D" d="M0.07857 0.03161c0,0 0.18581,-0.02681 0.20984,-0.03051 0.02403,-0.00369 0.04437,0 0.04067,0.04068 -0.0037,0.04067 0,0.87816 0,0.88556 0,0.00739 -0.0037,0.32474 -0.30196,0.41103 -0.01725,-0.02588 -0.02712,-0.05422 -0.02712,-0.05422 0,0 0.18365,-0.07274 0.18365,-0.32787 0,-0.25511 0,-0.79585 0,-0.79585 0,0 0.00246,-0.08662 -0.053,-0.08662 -0.05546,0 -0.05423,-0.00492 -0.05423,-0.00492 0,0 -0.00552,-0.03618 0.00215,-0.03728z"/>
   <path id="_106432328" fill="#1F478D" d="M1.6904 0.13237c0,0.04763 -0.03863,0.08627 -0.08627,0.08627 -0.04766,0 -0.08629,-0.03864 -0.08629,-0.08627 0,-0.04765 0.03863,-0.08629 0.08629,-0.08629 0.04764,0 0.08627,0.03864 0.08627,0.08629z"/>
   <path id="_106432520" fill="#1F478D" d="M1.43835 0.39427c0,0 0.16763,-0.04005 0.19289,-0.04129 0.02526,-0.00123 0.05299,-0.01664 0.05299,0.05485 0,0.07148 0,0.53985 0,0.53985 0,0 -0.01109,0.01354 -0.07272,0.01973 -0.06162,0.00615 -0.0721,0.00121 -0.0721,-0.02034 0,-0.02158 0,-0.46097 0,-0.46097 0,0 -0.00061,-0.05299 -0.0493,-0.05484 -0.04868,-0.00185 -0.07641,-0.01728 -0.05176,-0.03699z"/>
   <path id="_106432640" fill="#DA251D" d="M2.18647 0.35075c0,0 0.06163,-0.00855 0.06533,0.02473 0,0.03882 0,0.14883 0,0.14883 0,0 -0.0023,0.01617 -0.01894,0.01109 -0.01664,-0.00509 -0.03189,-0.0691 -0.04946,-0.09232 -0.01756,-0.02323 -0.07765,-0.05604 -0.14882,-0.03155 -0.07119,0.02449 -0.09013,0.10214 -0.02773,0.13773 0.06238,0.03559 0.2921,0.08135 0.28932,0.22093 -0.00276,0.13219 -0.1368,0.20891 -0.2884,0.20521 -0.14791,0.00093 -0.19134,-0.10352 -0.19134,-0.13218 0,-0.02866 0.03234,-0.07488 0.07486,-0.07488 0.04252,0 0.04622,0.00832 0.04622,0.03698 0,0.02866 0.03236,0.10261 0.10262,0.10261 0.07025,0 0.13496,-0.03328 0.12571,-0.09614 -0.00924,-0.06286 -0.07303,-0.08689 -0.1516,-0.10538 -0.07858,-0.01849 -0.18672,-0.06748 -0.1895,-0.18765 -0.00277,-0.12017 0.12017,-0.1932 0.36173,-0.16801z"/>
   <path id="_106431200" fill="#DA251D" d="M2.94324 0.72212c-0.01356,0.09368 -0.05795,0.20955 -0.24898,0.17133 0,0 -0.07764,-0.03328 -0.08504,-0.05916 -0.0037,-0.11833 -0.00492,-0.36237 -0.00492,-0.36237 0,0 0.18363,-0.10355 0.25266,-0.01232 0.06902,0.09119 0.09985,0.16884 0.08628,0.26252zm0.14175 -0.10723c-0.00492,-0.10971 -0.06286,-0.17995 -0.12079,-0.24897 -0.05793,-0.06903 -0.2995,0.02218 -0.33031,0.03944 -0.0308,0.01726 -0.02835,-0.00739 -0.02958,-0.0456 -0.00122,-0.03821 -0.22679,0.02834 -0.22679,0.02834 -0.02958,0.00987 -0.02341,0.05054 0.04684,0.04315 0.04412,-0.00464 0.04807,0.06778 0.04807,0.06778 0,0 0,0.76909 0,0.79251 0,0.0234 -0.01849,0.04068 0.05053,0.03574 0.06903,-0.00491 0.08628,-0.02343 0.08628,-0.02343 0,0 0,-0.24155 0,-0.34509 0.4055,0.06286 0.48068,-0.23418 0.47575,-0.34387z"/>
   <path id="_106433240" fill="#DA251D" d="M3.50388 0.907c-0.09904,0 -0.17933,-0.11009 -0.17933,-0.24589 0,-0.13579 0.08029,-0.24588 0.17933,-0.24588 0.09905,0 0.17933,0.11009 0.17933,0.24588 0,0.1358 -0.08028,0.24589 -0.17933,0.24589zm0 -0.56656c-0.17714,0 -0.32076,0.14172 -0.32076,0.31656 0,0.17484 0.14362,0.31656 0.32076,0.31656 0.17716,0 0.32077,-0.14172 0.32077,-0.31656 0,-0.17484 -0.14362,-0.31656 -0.32077,-0.31656z"/>
   <path id="_106433312" fill="#DA251D" d="M3.98318 0.2322c0,0 0.13403,-0.08134 0.13403,-0.03882 0,0.04252 0,0.17378 0,0.17378l0.18766 0 0 0.06009 -0.18766 0 0 0.36605c0,0 0.01664,0.1479 0.21169,0.06378 0.02311,0.0379 0.02311,0.0379 0.02311,0.0379 0,0 -0.36883,0.18459 -0.36883,-0.06317 0,-0.24774 0,-0.40426 0,-0.40426l-0.08905 0 0 -0.04437 0.08565 0 0.0034 -0.15098z"/>
   <path id="_106433552" fill="#1F478D" d="M3.58614 1.14705c0,0.00236 -0.00031,0.00526 -0.00093,0.00868 -0.00062,0.00343 -0.00176,0.00837 -0.0034,0.01479l-0.07372 0.25953c-0.00103,0.00365 -0.00236,0.00659 -0.00402,0.00885 -0.00164,0.00223 -0.00417,0.00401 -0.00759,0.0053 -0.0034,0.00128 -0.00825,0.00213 -0.01454,0.00257 -0.00631,0.00043 -0.01452,0.00065 -0.02462,0.00065 -0.01011,0 -0.01837,-0.00028 -0.02478,-0.00081 -0.0064,-0.00054 -0.0114,-0.00145 -0.01502,-0.00273 -0.00361,-0.00129 -0.00624,-0.00306 -0.0079,-0.00532 -0.00164,-0.00225 -0.00288,-0.00508 -0.00371,-0.00851l-0.04645 -0.17431 -0.00061 -0.00289 -0.00063 0.00289 -0.04274 0.17431c-0.00082,0.00365 -0.00201,0.00659 -0.00355,0.00885 -0.00155,0.00223 -0.00418,0.00401 -0.0079,0.0053 -0.00371,0.00128 -0.00877,0.00213 -0.01517,0.00257 -0.0064,0.00043 -0.01466,0.00065 -0.02479,0.00065 -0.01031,0 -0.01862,-0.00028 -0.0249,-0.00081 -0.00632,-0.00054 -0.01128,-0.00145 -0.01488,-0.00273 -0.00361,-0.00129 -0.00625,-0.00306 -0.00789,-0.00532 -0.00167,-0.00225 -0.00291,-0.00508 -0.00373,-0.00851l-0.07307 -0.25953c-0.00187,-0.00621 -0.00305,-0.01109 -0.00357,-0.01463 -0.00052,-0.00354 -0.00078,-0.00648 -0.00078,-0.00884 0,-0.00215 0.00058,-0.00403 0.00172,-0.00563 0.00114,-0.0016 0.00319,-0.00289 0.00619,-0.00386 0.00299,-0.00097 0.00701,-0.00166 0.01207,-0.00209 0.00506,-0.00042 0.0114,-0.00064 0.01905,-0.00064 0.00825,0 0.01497,0.00022 0.02011,0.00064 0.00518,0.00043 0.0092,0.00118 0.0121,0.00225 0.00289,0.00107 0.0049,0.00253 0.00604,0.00435 0.00112,0.00182 0.00201,0.00401 0.00263,0.00658l0.05481 0.21065 0.00062 0.00385 0.00063 -0.00385 0.05139 -0.21065c0.00061,-0.00257 0.0016,-0.00476 0.00294,-0.00658 0.00134,-0.00182 0.00335,-0.00328 0.00604,-0.00435 0.00267,-0.00107 0.00645,-0.00182 0.0113,-0.00225 0.00487,-0.00042 0.01109,-0.00064 0.01874,-0.00064 0.00765,0 0.01383,0.00026 0.01857,0.0008 0.00475,0.00053 0.00852,0.00128 0.01132,0.00225 0.00278,0.00097 0.00475,0.00225 0.00587,0.00386 0.00114,0.00162 0.00203,0.00349 0.00265,0.00563l0.05511 0.21225 0.00093 0.00353 0.00062 -0.00385 0.05264 -0.21065c0.00041,-0.00257 0.00124,-0.00476 0.00247,-0.00658 0.00124,-0.00182 0.00331,-0.00328 0.00619,-0.00435 0.0029,-0.00107 0.00682,-0.00182 0.01178,-0.00225 0.00495,-0.00042 0.01125,-0.00064 0.0189,-0.00064 0.00761,0 0.01387,0.00022 0.01872,0.00064 0.00485,0.00043 0.00867,0.00112 0.01147,0.00209 0.00278,0.00097 0.00468,0.00226 0.00572,0.00386 0.00103,0.0016 0.00155,0.00348 0.00155,0.00563z"/>
   <path id="_106433744" fill="#1F478D" d="M3.71402 1.43455c0,0.00215 -0.00063,0.00401 -0.00185,0.00563 -0.00124,0.0016 -0.00336,0.00295 -0.00635,0.00402 -0.003,0.00107 -0.00697,0.00187 -0.01192,0.00241 -0.00495,0.00053 -0.01125,0.00081 -0.01888,0.00081 -0.00765,0 -0.01395,-0.00028 -0.01891,-0.00081 -0.00495,-0.00054 -0.00891,-0.00134 -0.0119,-0.00241 -0.00302,-0.00107 -0.00512,-0.00242 -0.00636,-0.00402 -0.00125,-0.00162 -0.00187,-0.00348 -0.00187,-0.00563l0 -0.28621c0,-0.00214 0.00062,-0.00403 0.00187,-0.00563 0.00124,-0.00161 0.00334,-0.00301 0.00636,-0.00418 0.00299,-0.00119 0.00695,-0.00209 0.0119,-0.00275 0.00496,-0.00063 0.01126,-0.00095 0.01891,-0.00095 0.00763,0 0.01393,0.00032 0.01888,0.00095 0.00496,0.00066 0.00892,0.00156 0.01192,0.00275 0.00299,0.00117 0.00511,0.00257 0.00635,0.00418 0.00122,0.0016 0.00184,0.00349 0.00184,0.00563l1e-005 0.28621zm0.0059 -0.38398c0,0.01629 -0.00321,0.02756 -0.00962,0.03377 -0.00638,0.00622 -0.01826,0.00933 -0.03561,0.00933 -0.01754,0 -0.02936,-0.00301 -0.03544,-0.00901 -0.00611,-0.006 -0.00915,-0.01683 -0.00915,-0.03249 0,-0.01629 0.00315,-0.0276 0.00945,-0.03393 0.0063,-0.00631 0.01822,-0.00947 0.03576,-0.00947 0.01735,0 0.02912,0.00305 0.0353,0.00916 0.0062,0.00611 0.00931,0.017 0.00931,0.03264z"/>
   <path id="_106434176" fill="#DA251D" d="M4.07077 1.05122c0,0.00793 -0.00068,0.01463 -0.002,0.02009 -0.00136,0.00547 -0.00366,0.00987 -0.00698,0.01319 -0.00331,0.00332 -0.00779,0.00567 -0.01347,0.00707 -0.00568,0.0014 -0.01275,0.0021 -0.02121,0.0021 -0.00846,0 -0.01559,-0.0007 -0.02137,-0.0021 -0.00579,-0.0014 -0.01037,-0.00375 -0.01379,-0.00707 -0.00338,-0.00332 -0.00576,-0.00772 -0.00711,-0.01319 -0.00134,-0.00546 -0.00201,-0.01216 -0.00201,-0.02009 0,-0.00773 0.00067,-0.01426 0.00201,-0.01963 0.00135,-0.00534 0.00373,-0.00975 0.00711,-0.01319 0.00342,-0.00342 0.008,-0.00589 0.01379,-0.00739 0.00578,-0.00149 0.01291,-0.00224 0.02137,-0.00224 0.00846,0 0.01553,0.00075 0.02121,0.00224 0.00568,0.0015 0.01016,0.00397 0.01347,0.00739 0.00332,0.00344 0.00562,0.00785 0.00698,0.01319 0.00132,0.00537 0.002,0.0119 0.002,0.01963zm-0.00587 0.38333c0,0.00215 -0.00062,0.00401 -0.00186,0.00563 -0.00125,0.0016 -0.00332,0.00295 -0.0062,0.00402 -0.00289,0.00107 -0.00686,0.00187 -0.01192,0.00241 -0.00506,0.00053 -0.0113,0.00081 -0.01873,0.00081 -0.00764,0 -0.01401,-0.00028 -0.01904,-0.00081 -0.00507,-0.00054 -0.00904,-0.00134 -0.01193,-0.00241 -0.0029,-0.00107 -0.00497,-0.00242 -0.00619,-0.00402 -0.00125,-0.00162 -0.00187,-0.00348 -0.00187,-0.00563l0 -0.23219 -0.10251 0 0 0.23219c0,0.00215 -0.0006,0.00401 -0.00185,0.00563 -0.00124,0.0016 -0.0033,0.00295 -0.0062,0.00402 -0.00288,0.00107 -0.00684,0.00187 -0.0119,0.00241 -0.00507,0.00053 -0.01142,0.00081 -0.01905,0.00081 -0.00744,0 -0.01368,-0.00028 -0.01874,-0.00081 -0.00507,-0.00054 -0.00908,-0.00134 -0.01207,-0.00241 -0.003,-0.00107 -0.00507,-0.00242 -0.0062,-0.00402 -0.00113,-0.00162 -0.00171,-0.00348 -0.00171,-0.00563l0 -0.23219 -0.03467 0c-0.00393,0 -0.00688,-0.00252 -0.00883,-0.00756 -0.00196,-0.00504 -0.00294,-0.01344 -0.00294,-0.02525 0,-0.0062 0.00025,-0.01146 0.00078,-0.01576 0.00051,-0.00428 0.00123,-0.00765 0.00216,-0.01012 0.00093,-0.00247 0.00217,-0.00423 0.00371,-0.00531 0.00156,-0.00107 0.00336,-0.00161 0.00541,-0.00161l0.03438 0 0 -0.0254c0,-0.0195 0.00191,-0.03655 0.00574,-0.05113 0.00381,-0.01457 0.00965,-0.02675 0.01749,-0.0365 0.00784,-0.00975 0.01775,-0.01704 0.02973,-0.02187 0.01197,-0.00483 0.0261,-0.00724 0.04243,-0.00724 0.00453,0 0.00913,0.00022 0.01377,0.00064 0.00465,0.00043 0.00904,0.00108 0.01317,0.00193 0.00413,0.00086 0.00773,0.00182 0.01082,0.00289 0.00311,0.00109 0.00523,0.00222 0.00636,0.00339 0.00113,0.00118 0.00206,0.00252 0.0028,0.00401 0.00071,0.0015 0.00131,0.00344 0.00185,0.00579 0.00052,0.00237 0.00087,0.00542 0.00108,0.00917 0.00019,0.00376 0.00031,0.00842 0.00031,0.01398 0,0.0103 -0.00058,0.01754 -0.0017,0.02171 -0.00114,0.00419 -0.00336,0.00627 -0.00666,0.00627 -0.00124,0 -0.00263,-0.0002 -0.00418,-0.00063 -0.00156,-0.00044 -0.0034,-0.00097 -0.00556,-0.00161 -0.00219,-0.00065 -0.00472,-0.00124 -0.00761,-0.00177 -0.00288,-0.00054 -0.00649,-0.00081 -0.01082,-0.00081 -0.01096,0 -0.0189,0.00387 -0.02386,0.01158 -0.00495,0.00771 -0.00744,0.02048 -0.00744,0.03828l0 0.02732 0.1567 0c0.00784,0 0.01373,0.00178 0.01765,0.00532 0.00393,0.00352 0.0059,0.00915 0.0059,0.01687l0 0.27561z"/>
  </g>
 </g>
</svg>
