<?xml version="1.0" ?><!DOCTYPE svg  PUBLIC '-//W3C//DTD SVG 1.1//EN'  'http://www.w3.org/Graphics/SVG/1.1/DTD/svg11.dtd'><svg id="Layer_1" style="enable-background:new 0 0 74 74;" version="1.1" viewBox="0 0 74 74" xml:space="preserve" xmlns="http://www.w3.org/2000/svg" xmlns:xlink="http://www.w3.org/1999/xlink"><style type="text/css">
	.st0{fill:#7688A1;}
	.st1{fill:#FABB8E;}
	.st2{fill:#E69D6A;}
	.st3{fill:#594667;}
	.st4{fill:#E73A36;}
	.st5{fill:#CFE5E4;}
	.st6{fill:#FFFFFF;}
	.st7{fill:#EEF1F6;}
	.st8{fill:#8EDAFA;}
	.st9{fill:#FFF383;}
	.st10{fill:#70B7D6;}
	.st11{fill:#FFAEC3;}
	.st12{fill:#FF9DB2;}
	.st13{fill:#F18DA2;}
	.st14{fill:#FFDF97;}
	.st15{fill:#49375B;}
	.st16{fill:#452E1B;}
	.st17{fill:#FEF6B0;}
	.st18{fill:#FFCCA9;}
	.st19{fill:#FED766;}
	.st20{fill:#8A9DB2;}
	.st21{fill:#5D738C;}
	.st22{fill:#2C3E50;}
	.st23{fill:#EC685E;}
	.st24{fill:#54758C;}
	.st25{fill:#D12828;}
	.st26{fill:#69567C;}
	.st27{fill:#857399;}
	.st28{fill:#705D82;}
	.st29{fill:#EAA678;}
	.st30{fill:#D88D5B;}
	.st31{fill:#3597D3;}
	.st32{fill:#E27491;}
	.st33{fill:#E4F2F1;}
	.st34{fill:#FFE576;}
	.st35{fill:#FFB8CB;}
	.st36{fill:#C91F1F;}
	.st37{fill:#E0E2EE;}
	.st38{fill:#FEFEFE;}
	.st39{fill:#E5E5E5;}
	.st40{fill:#D3D3D3;}
	.st41{fill:#C2C3C4;}
	.st42{fill:none;}
	.st43{fill:#FFFBD7;}
	.st44{fill:#CCCCCC;}
	.st45{fill:#FFF5B0;}
	.st46{fill:#EDEFF4;}
	.st47{fill:#F0F2F7;}
	.st48{fill:#D3EBF7;}
</style><g><g><path class="st0" d="M60,13.5C60,8,56.8,3.2,52,1v9.7c-2.2,2.2-3.5,3.5-5.7,5.7c-2.2-2.2-3.5-3.5-5.7-5.7V1c-4.7,2.2-8,6.9-8,12.5    c0,5.3,3,9.9,7.4,12.2v41c0,1.7,0.7,3.3,1.8,4.5c1.1,1.1,2.7,1.8,4.5,1.8c3.5,0,6.3-2.8,6.3-6.3v-41C57,23.4,60,18.8,60,13.5z     M46.3,69c-1.4,0-2.6-1.2-2.6-2.6c0-1.4,1.2-2.6,2.6-2.6s2.6,1.2,2.6,2.6C48.9,67.9,47.8,69,46.3,69z"/><path class="st20" d="M44,33.9v19.3c0,1.1,0.8,2.2,1.9,2.4c1.5,0.3,2.9-0.8,2.9-2.3V33.9c0-1.3-1.1-2.4-2.4-2.4h0    C45,31.6,44,32.6,44,33.9z"/><path class="st21" d="M48.7,33.9v19.4c0,0.9-0.5,1.6-1.2,2c0.2-0.3,0.3-0.7,0.3-1.2V34.8c0-1.3-1.1-2.4-2.4-2.4    c-0.4,0-0.9,0.1-1.2,0.3c0.1-0.2,0.2-0.3,0.4-0.5c0.4-0.4,1-0.7,1.7-0.7C47.6,31.6,48.7,32.6,48.7,33.9z"/></g><g><polygon class="st5" points="20.2,41.6 23.6,41.6 23.6,9.4 25.3,7.3 23.5,1 20.3,1 18.6,7.3 20.2,9.4   "/><path class="st22" d="M22.6,73h-1.4c-3.2,0-5.7-2.6-5.7-5.7V45.7h12.9v21.6C28.4,70.4,25.8,73,22.6,73z"/><path class="st23" d="M28.6,45.7H15.8c-1,0-1.8-0.8-1.8-1.8v-0.4c0-1,0.8-1.8,1.8-1.8h12.8c1,0,1.8,0.8,1.8,1.8v0.4    C30.3,44.9,29.5,45.7,28.6,45.7z"/><path class="st24" d="M19.7,64.5h-0.3c-0.7,0-1.3-0.6-1.3-1.3V49.6c0-0.7,0.6-1.3,1.3-1.3h0.3c0.7,0,1.3,0.6,1.3,1.3v13.6    C21,63.9,20.4,64.5,19.7,64.5z"/><path class="st24" d="M24.5,64.5h-0.3c-0.7,0-1.3-0.6-1.3-1.3V49.6c0-0.7,0.6-1.3,1.3-1.3h0.3c0.7,0,1.3,0.6,1.3,1.3v13.6    C25.8,63.9,25.2,64.5,24.5,64.5z"/></g></g></svg>